{"accessors":{"accessor_0":{"bufferView":"bufferView_0","byteOffset":0,"byteStride":0,"componentType":5126,"count":1861,"min":[-8.274200439453125,-2.0325000286102295,0.0012000000569969416],"max":[8.237299919128418,2.0325000286102295,0.9998999834060669],"type":"VEC3"},"accessor_1":{"bufferView":"bufferView_0","byteOffset":22332,"byteStride":0,"componentType":5126,"count":1861,"min":[-1,-1,-1],"max":[0.9980999827384949,1,1],"type":"VEC3"},"accessor_2":{"bufferView":"bufferView_0","byteOffset":44664,"byteStride":0,"componentType":5126,"count":1861,"min":[0.0034000000450760126,0.8220000267028809],"max":[0.9915000200271606,0.9969000220298767],"type":"VEC2"},"accessor_3":{"bufferView":"bufferView_1","byteOffset":0,"byteStride":0,"componentType":5123,"count":10464,"min":[0],"max":[1860],"type":"SCALAR"}},"asset":{"generator":"obj2gltf","profile":{"api":"WebGL","version":"1.0"},"version":"1.0","premultipliedAlpha":true},"buffers":{"buffer":{"byteLength":80480,"uri":"data:application/octet-stream;base64,","type":"arraybuffer"}},"bufferViews":{"bufferView_0":{"buffer":"buffer","byteLength":59552,"byteOffset":0,"target":34962},"bufferView_1":{"buffer":"buffer","byteLength":20928,"byteOffset":59552,"target":34963}},"extensionsUsed":[],"images":{"candy_cane_diffuse":{"name":"candy_cane_diffuse","uri":"data:image/jpeg;base64,"}},"materials":{"candy_cane":{"technique":"technique0","values":{"ambient":"texture_candy_cane_diffuse","diffuse":"texture_candy_cane_diffuse","emission":[0,0,0,1],"specular":[0.72,0.72,0.72,1],"shininess":15,"transparency":1}}},"meshes":{"candy_cane_1":{"name":"candy_cane_1","primitives":[{"attributes":{"POSITION":"accessor_0","NORMAL":"accessor_1","TEXCOORD_0":"accessor_2"},"indices":"accessor_3","material":"candy_cane","mode":4}]}},"nodes":{"candy_cane":{"name":"candy_cane","meshes":["candy_cane_1"],"children":[],"matrix":[1,0,0,0,0,1,0,0,0,0,1,0,0,0,0,1]}},"samplers":{"sampler":{"magFilter":9729,"minFilter":9986,"wrapS":10497,"wrapT":10497}},"scene":"scene","scenes":{"scene":{"nodes":["candy_cane"]}},"textures":{"texture_candy_cane_diffuse":{"format":6407,"internalFormat":6407,"sampler":"sampler","source":"candy_cane_diffuse","target":3553,"type":5121}},"animations":{},"cameras":{},"programs":{"program0":{"attributes":["a_position","a_normal","a_texcoord_0"],"fragmentShader":"fragmentShader0","vertexShader":"vertexShader0"}},"shaders":{"vertexShader0":{"type":35633,"uri":"data:text/plain;base64,"},"fragmentShader0":{"type":35632,"uri":"data:text/plain;base64,"}},"skins":{},"techniques":{"technique0":{"attributes":{"a_position":"position","a_normal":"normal","a_texcoord_0":"texcoord_0"},"parameters":{"modelViewMatrix":{"semantic":"MODELVIEW","type":35676},"projectionMatrix":{"semantic":"PROJECTION","type":35676},"normalMatrix":{"semantic":"MODELVIEWINVERSETRANSPOSE","type":35675},"ambient":{"type":35678},"diffuse":{"type":35678},"emission":{"type":35666},"specular":{"type":35666},"shininess":{"type":5126},"transparency":{"type":5126},"position":{"semantic":"POSITION","type":35665},"normal":{"semantic":"NORMAL","type":35665},"texcoord_0":{"semantic":"TEXCOORD_0","type":35664}},"program":"program0","states":{"enable":[2884,2929]},"uniforms":{"u_modelViewMatrix":"modelViewMatrix","u_projectionMatrix":"projectionMatrix","u_normalMatrix":"normalMatrix","u_ambient":"ambient","u_diffuse":"diffuse","u_emission":"emission","u_specular":"specular","u_shininess":"shininess","u_transparency":"transparency"}}}}
