{"accessors":{"accessor_0":{"bufferView":"bufferView_0","byteOffset":0,"byteStride":0,"componentType":5126,"count":6542,"min":[-3.535799980163574,-3.535799980163574,0.21610000729560852],"max":[3.535799980163574,3.535799980163574,16.185400009155273],"type":"VEC3"},"accessor_1":{"bufferView":"bufferView_0","byteOffset":78504,"byteStride":0,"componentType":5126,"count":6542,"min":[-1,-1,-1],"max":[1,1,1],"type":"VEC3"},"accessor_2":{"bufferView":"bufferView_0","byteOffset":157008,"byteStride":0,"componentType":5126,"count":6542,"min":[0,0.048700001090765],"max":[1,1],"type":"VEC2"},"accessor_3":{"bufferView":"bufferView_1","byteOffset":0,"byteStride":0,"componentType":5123,"count":36864,"min":[0],"max":[6541],"type":"SCALAR"}},"asset":{"generator":"obj2gltf","profile":{"api":"WebGL","version":"1.0"},"version":"1.0","premultipliedAlpha":true},"buffers":{"buffer":{"byteLength":283072,"uri":"data:application/octet-stream;base64,","type":"arraybuffer"}},"bufferViews":{"bufferView_0":{"buffer":"buffer","byteLength":209344,"byteOffset":0,"target":34962},"bufferView_1":{"buffer":"buffer","byteLength":73728,"byteOffset":209344,"target":34963}},"extensionsUsed":[],"images":{"Dreidel_diff":{"name":"Dreidel_diff","uri":"data:image/jpeg;base64,"}},"materials":{"01___Default":{"technique":"technique0","values":{"ambient":"texture_Dreidel_diff","diffuse":"texture_Dreidel_diff","emission":[0,0,0,1],"specular":[0.243,0.243,0.243,1],"shininess":22,"transparency":1}}},"meshes":{"Dreidel_1":{"name":"Dreidel_1","primitives":[{"attributes":{"POSITION":"accessor_0","NORMAL":"accessor_1","TEXCOORD_0":"accessor_2"},"indices":"accessor_3","material":"01___Default","mode":4}]}},"nodes":{"Dreidel":{"name":"Dreidel","meshes":["Dreidel_1"],"children":[],"matrix":[1,0,0,0,0,1,0,0,0,0,1,0,0,0,0,1]}},"samplers":{"sampler":{"magFilter":9729,"minFilter":9986,"wrapS":10497,"wrapT":10497}},"scene":"scene","scenes":{"scene":{"nodes":["Dreidel"]}},"textures":{"texture_Dreidel_diff":{"format":6407,"internalFormat":6407,"sampler":"sampler","source":"Dreidel_diff","target":3553,"type":5121}},"animations":{},"cameras":{},"programs":{"program0":{"attributes":["a_position","a_normal","a_texcoord_0"],"fragmentShader":"fragmentShader0","vertexShader":"vertexShader0"}},"shaders":{"vertexShader0":{"type":35633,"uri":"data:text/plain;base64,"},"fragmentShader0":{"type":35632,"uri":"data:text/plain;base64,"}},"skins":{},"techniques":{"technique0":{"attributes":{"a_position":"position","a_normal":"normal","a_texcoord_0":"texcoord_0"},"parameters":{"modelViewMatrix":{"semantic":"MODELVIEW","type":35676},"projectionMatrix":{"semantic":"PROJECTION","type":35676},"normalMatrix":{"semantic":"MODELVIEWINVERSETRANSPOSE","type":35675},"ambient":{"type":35678},"diffuse":{"type":35678},"emission":{"type":35666},"specular":{"type":35666},"shininess":{"type":5126},"transparency":{"type":5126},"position":{"semantic":"POSITION","type":35665},"normal":{"semantic":"NORMAL","type":35665},"texcoord_0":{"semantic":"TEXCOORD_0","type":35664}},"program":"program0","states":{"enable":[2884,2929]},"uniforms":{"u_modelViewMatrix":"modelViewMatrix","u_projectionMatrix":"projectionMatrix","u_normalMatrix":"normalMatrix","u_ambient":"ambient","u_diffuse":"diffuse","u_emission":"emission","u_specular":"specular","u_shininess":"shininess","u_transparency":"transparency"}}}}
