{"accessors":{"accessor_0":{"bufferView":"bufferView_0","byteOffset":0,"byteStride":0,"componentType":5126,"count":152,"min":[-13.759949684143066,-0.0760708600282669,-14.636353492736816],"max":[12.918763160705566,26.38460922241211,12.042359352111816],"type":"VEC3"},"accessor_1":{"bufferView":"bufferView_0","byteOffset":1824,"byteStride":0,"componentType":5126,"count":152,"min":[-1,-1,-1],"max":[1,1,1],"type":"VEC3"},"accessor_2":{"bufferView":"bufferView_0","byteOffset":3648,"byteStride":0,"componentType":5126,"count":152,"min":[0.00390625,0.00390625],"max":[0.9951275587081909,0.9945495128631592],"type":"VEC2"},"accessor_3":{"bufferView":"bufferView_1","byteOffset":0,"byteStride":0,"componentType":5123,"count":312,"min":[0],"max":[151],"type":"SCALAR"},"accessor_4":{"bufferView":"bufferView_0","byteOffset":4864,"byteStride":0,"componentType":5126,"count":34,"min":[-13.704440116882324,23.359743118286133,-14.580843925476074],"max":[12.863253593444824,26.30853843688965,11.986849784851074],"type":"VEC3"},"accessor_5":{"bufferView":"bufferView_0","byteOffset":5272,"byteStride":0,"componentType":5126,"count":34,"min":[-0.9985601305961609,-1,-0.9985601305961609],"max":[0.9985601305961609,1,0.9985601305961609],"type":"VEC3"},"accessor_6":{"bufferView":"bufferView_0","byteOffset":5680,"byteStride":0,"componentType":5126,"count":34,"min":[0.014889039099216461,0.00987100601196289],"max":[0.9860233068466187,0.9821674227714539],"type":"VEC2"},"accessor_7":{"bufferView":"bufferView_1","byteOffset":624,"byteStride":0,"componentType":5123,"count":54,"min":[0],"max":[33],"type":"SCALAR"},"accessor_8":{"bufferView":"bufferView_0","byteOffset":5952,"byteStride":0,"componentType":5126,"count":20,"min":[-13.350971221923828,0,-14.227375030517578],"max":[12.509784698486328,23.359743118286133,11.633380889892578],"type":"VEC3"},"accessor_9":{"bufferView":"bufferView_0","byteOffset":6192,"byteStride":0,"componentType":5126,"count":20,"min":[-0.9978904128074646,-1,-0.9978904128074646],"max":[0.9978904128074646,-0.06492121517658234,0.9978904128074646],"type":"VEC3"},"accessor_10":{"bufferView":"bufferView_0","byteOffset":6432,"byteStride":0,"componentType":5126,"count":20,"min":[0,5.96050000467585e-8],"max":[0.9999999403953552,1],"type":"VEC2"},"accessor_11":{"bufferView":"bufferView_1","byteOffset":732,"byteStride":0,"componentType":5123,"count":30,"min":[0],"max":[19],"type":"SCALAR"},"accessor_12":{"bufferView":"bufferView_0","byteOffset":6592,"byteStride":0,"componentType":5126,"count":8180,"min":[-10.685117721557617,26.209697723388672,-5.497344970703125],"max":[9.431326866149902,30.479610443115234,11.624656677246094],"type":"VEC3"},"accessor_13":{"bufferView":"bufferView_0","byteOffset":104752,"byteStride":0,"componentType":5126,"count":8180,"min":[-0.9992924928665161,-1,-0.9999856948852539],"max":[0.9997194409370422,1,0.9999858140945435],"type":"VEC3"},"accessor_14":{"bufferView":"bufferView_0","byteOffset":202912,"byteStride":0,"componentType":5126,"count":8180,"min":[0,0],"max":[1,1],"type":"VEC2"},"accessor_15":{"bufferView":"bufferView_1","byteOffset":792,"byteStride":0,"componentType":5123,"count":48192,"min":[0],"max":[8179],"type":"SCALAR"}},"asset":{"generator":"obj2gltf","profile":{"api":"WebGL","version":"1.0"},"version":"1.0","premultipliedAlpha":true},"buffers":{"buffer":{"byteLength":365528,"uri":"data:application/octet-stream;base64,","type":"arraybuffer"}},"bufferViews":{"bufferView_0":{"buffer":"buffer","byteLength":268352,"byteOffset":0,"target":34962},"bufferView_1":{"buffer":"buffer","byteLength":97176,"byteOffset":268352,"target":34963}},"extensionsUsed":[],"images":{},"materials":{"wire_135006006":{"technique":"technique0","values":{"ambient":[0,0,0,1],"diffuse":[0.5,0.5,0.5,1],"emission":[0,0,0,1],"specular":[0,0,0,1],"shininess":0,"transparency":1}},"wire_085028177":{"technique":"technique0","values":{"ambient":[0,0,0,1],"diffuse":[0.5,0.5,0.5,1],"emission":[0,0,0,1],"specular":[0,0,0,1],"shininess":0,"transparency":1}},"wire_027177088":{"technique":"technique0","values":{"ambient":[0,0,0,1],"diffuse":[0.5,0.5,0.5,1],"emission":[0,0,0,1],"specular":[0,0,0,1],"shininess":0,"transparency":1}},"wire_087225087":{"technique":"technique0","values":{"ambient":[0,0,0,1],"diffuse":[0.5,0.5,0.5,1],"emission":[0,0,0,1],"specular":[0,0,0,1],"shininess":0,"transparency":1}}},"meshes":{"Band_1":{"name":"Band_1","primitives":[{"attributes":{"POSITION":"accessor_0","NORMAL":"accessor_1","TEXCOORD_0":"accessor_2"},"indices":"accessor_3","material":"wire_135006006","mode":4}]},"Box_Cap_1":{"name":"Box_Cap_1","primitives":[{"attributes":{"POSITION":"accessor_4","NORMAL":"accessor_5","TEXCOORD_0":"accessor_6"},"indices":"accessor_7","material":"wire_085028177","mode":4}]},"Box01_1":{"name":"Box01_1","primitives":[{"attributes":{"POSITION":"accessor_8","NORMAL":"accessor_9","TEXCOORD_0":"accessor_10"},"indices":"accessor_11","material":"wire_027177088","mode":4}]},"Ruschel_1":{"name":"Ruschel_1","primitives":[{"attributes":{"POSITION":"accessor_12","NORMAL":"accessor_13","TEXCOORD_0":"accessor_14"},"indices":"accessor_15","material":"wire_087225087","mode":4}]}},"nodes":{"Band":{"name":"Band","meshes":["Band_1"],"children":[],"matrix":[1,0,0,0,0,1,0,0,0,0,1,0,0,0,0,1]},"Box_Cap":{"name":"Box_Cap","meshes":["Box_Cap_1"],"children":[],"matrix":[1,0,0,0,0,1,0,0,0,0,1,0,0,0,0,1]},"Box01":{"name":"Box01","meshes":["Box01_1"],"children":[],"matrix":[1,0,0,0,0,1,0,0,0,0,1,0,0,0,0,1]},"Ruschel":{"name":"Ruschel","meshes":["Ruschel_1"],"children":[],"matrix":[1,0,0,0,0,1,0,0,0,0,1,0,0,0,0,1]}},"samplers":{},"scene":"scene","scenes":{"scene":{"nodes":["Band","Box_Cap","Box01","Ruschel"]}},"textures":{},"animations":{},"cameras":{},"programs":{"program0":{"attributes":["a_position","a_normal","a_texcoord_0"],"fragmentShader":"fragmentShader0","vertexShader":"vertexShader0"}},"shaders":{"vertexShader0":{"type":35633,"uri":"data:text/plain;base64,"},"fragmentShader0":{"type":35632,"uri":"data:text/plain;base64,"}},"skins":{},"techniques":{"technique0":{"attributes":{"a_position":"position","a_normal":"normal","a_texcoord_0":"texcoord_0"},"parameters":{"modelViewMatrix":{"semantic":"MODELVIEW","type":35676},"projectionMatrix":{"semantic":"PROJECTION","type":35676},"normalMatrix":{"semantic":"MODELVIEWINVERSETRANSPOSE","type":35675},"ambient":{"type":35666},"diffuse":{"type":35666},"emission":{"type":35666},"specular":{"type":35666},"shininess":{"type":5126},"transparency":{"type":5126},"position":{"semantic":"POSITION","type":35665},"normal":{"semantic":"NORMAL","type":35665},"texcoord_0":{"semantic":"TEXCOORD_0","type":5126}},"program":"program0","states":{"enable":[2884,2929]},"uniforms":{"u_modelViewMatrix":"modelViewMatrix","u_projectionMatrix":"projectionMatrix","u_normalMatrix":"normalMatrix","u_ambient":"ambient","u_diffuse":"diffuse","u_emission":"emission","u_specular":"specular","u_shininess":"shininess","u_transparency":"transparency"}}}}
