{"accessors":{"accessor_0":{"bufferView":"bufferView_0","byteOffset":0,"byteStride":0,"componentType":5126,"count":6658,"min":[-3.9249000549316406,-0.5315999984741211,0.06800000369548798],"max":[3.7060000896453857,0.44850000739097595,9.81350040435791],"type":"VEC3"},"accessor_1":{"bufferView":"bufferView_0","byteOffset":79896,"byteStride":0,"componentType":5126,"count":6658,"min":[-1,-1,-1],"max":[1,1,1],"type":"VEC3"},"accessor_2":{"bufferView":"bufferView_0","byteOffset":159792,"byteStride":0,"componentType":5126,"count":6658,"min":[0.01119999960064888,0.010200000368058681],"max":[0.9897000193595886,0.9919999837875366],"type":"VEC2"},"accessor_3":{"bufferView":"bufferView_1","byteOffset":0,"byteStride":0,"componentType":5123,"count":22236,"min":[0],"max":[6492],"type":"SCALAR"},"accessor_4":{"bufferView":"bufferView_1","byteOffset":44472,"byteStride":0,"componentType":5123,"count":14976,"min":[1814],"max":[4473],"type":"SCALAR"},"accessor_5":{"bufferView":"bufferView_1","byteOffset":74424,"byteStride":0,"componentType":5123,"count":960,"min":[6493],"max":[6657],"type":"SCALAR"},"accessor_6":{"bufferView":"bufferView_0","byteOffset":213056,"byteStride":0,"componentType":5126,"count":2707,"min":[-0.1972000002861023,0.12049999833106995,9.616700172424316],"max":[0.531000018119812,0.15569999814033508,12.592599868774414],"type":"VEC3"},"accessor_7":{"bufferView":"bufferView_0","byteOffset":245540,"byteStride":0,"componentType":5126,"count":2707,"min":[-1,-1,-1],"max":[1,1,1],"type":"VEC3"},"accessor_8":{"bufferView":"bufferView_0","byteOffset":278024,"byteStride":0,"componentType":5126,"count":2707,"min":[0.019700000062584877,0.012799999676644802],"max":[0.9835000038146973,0.9847000241279602],"type":"VEC2"},"accessor_9":{"bufferView":"bufferView_1","byteOffset":76344,"byteStride":0,"componentType":5123,"count":14688,"min":[0],"max":[2706],"type":"SCALAR"}},"asset":{"generator":"obj2gltf","profile":{"api":"WebGL","version":"1.0"},"version":"1.0","premultipliedAlpha":true},"buffers":{"buffer":{"byteLength":405400,"uri":"data:application/octet-stream;base64,","type":"arraybuffer"}},"bufferViews":{"bufferView_0":{"buffer":"buffer","byteLength":299680,"byteOffset":0,"target":34962},"bufferView_1":{"buffer":"buffer","byteLength":105720,"byteOffset":299680,"target":34963}},"extensionsUsed":[],"images":{"Plane001DiffuseMap":{"name":"Plane001DiffuseMap","uri":"data:image/jpeg;base64,"},"GingerBreadCookieMaleDiffuseMap":{"name":"GingerBreadCookieMaleDiffuseMap","uri":"data:image/jpeg;base64,"}},"materials":{"Icing":{"technique":"technique0","values":{"ambient":"texture_GingerBreadCookieMaleDiffuseMap","diffuse":"texture_GingerBreadCookieMaleDiffuseMap","emission":[0,0,0,1],"specular":[0.54,0.54,0.54,1],"shininess":53,"transparency":1}},"Cookie_Male":{"technique":"technique0","values":{"ambient":"texture_GingerBreadCookieMaleDiffuseMap","diffuse":"texture_GingerBreadCookieMaleDiffuseMap","emission":[0,0,0,1],"specular":[0.081,0.081,0.081,1],"shininess":30,"transparency":1}},"Cookie_Male_Metal":{"technique":"technique0","values":{"ambient":"texture_GingerBreadCookieMaleDiffuseMap","diffuse":"texture_GingerBreadCookieMaleDiffuseMap","emission":[0,0,0,1],"specular":[0.2345,0.2345,0.1958,1],"shininess":78,"transparency":1}},"matHook":{"technique":"technique0","values":{"ambient":"texture_Plane001DiffuseMap","diffuse":"texture_Plane001DiffuseMap","emission":[0,0,0,1],"specular":[0.45,0.45,0.45,1],"shininess":55,"transparency":1}}},"meshes":{"Ginderbread_Male_1":{"name":"Ginderbread_Male_1","primitives":[{"attributes":{"POSITION":"accessor_0","NORMAL":"accessor_1","TEXCOORD_0":"accessor_2"},"indices":"accessor_3","material":"Icing","mode":4},{"attributes":{"POSITION":"accessor_0","NORMAL":"accessor_1","TEXCOORD_0":"accessor_2"},"indices":"accessor_4","material":"Cookie_Male","mode":4},{"attributes":{"POSITION":"accessor_0","NORMAL":"accessor_1","TEXCOORD_0":"accessor_2"},"indices":"accessor_5","material":"Cookie_Male_Metal","mode":4}]},"Hook_1":{"name":"Hook_1","primitives":[{"attributes":{"POSITION":"accessor_6","NORMAL":"accessor_7","TEXCOORD_0":"accessor_8"},"indices":"accessor_9","material":"matHook","mode":4}]}},"nodes":{"Ginderbread_Male":{"name":"Ginderbread_Male","meshes":["Ginderbread_Male_1"],"children":[],"matrix":[1,0,0,0,0,1,0,0,0,0,1,0,0,0,0,1]},"Hook":{"name":"Hook","meshes":["Hook_1"],"children":[],"matrix":[1,0,0,0,0,1,0,0,0,0,1,0,0,0,0,1]}},"samplers":{"sampler":{"magFilter":9729,"minFilter":9986,"wrapS":10497,"wrapT":10497}},"scene":"scene","scenes":{"scene":{"nodes":["Ginderbread_Male","Hook"]}},"textures":{"texture_Plane001DiffuseMap":{"format":6407,"internalFormat":6407,"sampler":"sampler","source":"Plane001DiffuseMap","target":3553,"type":5121},"texture_GingerBreadCookieMaleDiffuseMap":{"format":6407,"internalFormat":6407,"sampler":"sampler","source":"GingerBreadCookieMaleDiffuseMap","target":3553,"type":5121}},"animations":{},"cameras":{},"programs":{"program0":{"attributes":["a_position","a_normal","a_texcoord_0"],"fragmentShader":"fragmentShader0","vertexShader":"vertexShader0"}},"shaders":{"vertexShader0":{"type":35633,"uri":"data:text/plain;base64,"},"fragmentShader0":{"type":35632,"uri":"data:text/plain;base64,"}},"skins":{},"techniques":{"technique0":{"attributes":{"a_position":"position","a_normal":"normal","a_texcoord_0":"texcoord_0"},"parameters":{"modelViewMatrix":{"semantic":"MODELVIEW","type":35676},"projectionMatrix":{"semantic":"PROJECTION","type":35676},"normalMatrix":{"semantic":"MODELVIEWINVERSETRANSPOSE","type":35675},"ambient":{"type":35678},"diffuse":{"type":35678},"emission":{"type":35666},"specular":{"type":35666},"shininess":{"type":5126},"transparency":{"type":5126},"position":{"semantic":"POSITION","type":35665},"normal":{"semantic":"NORMAL","type":35665},"texcoord_0":{"semantic":"TEXCOORD_0","type":35664}},"program":"program0","states":{"enable":[2884,2929]},"uniforms":{"u_modelViewMatrix":"modelViewMatrix","u_projectionMatrix":"projectionMatrix","u_normalMatrix":"normalMatrix","u_ambient":"ambient","u_diffuse":"diffuse","u_emission":"emission","u_specular":"specular","u_shininess":"shininess","u_transparency":"transparency"}}}}
