{"accessors":{"accessor_0":{"bufferView":"bufferView_0","byteOffset":0,"byteStride":0,"componentType":5126,"count":10599,"min":[-1.9911999702453613,-2.2434000968933105,0.03999999910593033],"max":[2.4202001094818115,2.1679999828338623,9.909000396728516],"type":"VEC3"},"accessor_1":{"bufferView":"bufferView_0","byteOffset":127188,"byteStride":0,"componentType":5126,"count":10599,"min":[-1,-1,-1],"max":[1,1,1],"type":"VEC3"},"accessor_2":{"bufferView":"bufferView_0","byteOffset":254376,"byteStride":0,"componentType":5126,"count":10599,"min":[0.02280000038444996,0.5332000255584717],"max":[0.9805999994277954,0.7451000213623047],"type":"VEC2"},"accessor_3":{"bufferView":"bufferView_1","byteOffset":0,"byteStride":0,"componentType":5123,"count":62976,"min":[0],"max":[10598],"type":"SCALAR"},"accessor_4":{"bufferView":"bufferView_0","byteOffset":339168,"byteStride":0,"componentType":5126,"count":12793,"min":[-2.242799997329712,-2.460700035095215,2.241499900817871],"max":[2.7193000316619873,2.501199960708618,9.03849983215332],"type":"VEC3"},"accessor_5":{"bufferView":"bufferView_0","byteOffset":492684,"byteStride":0,"componentType":5126,"count":12793,"min":[-1,-1,-1],"max":[1,1,1],"type":"VEC3"},"accessor_6":{"bufferView":"bufferView_0","byteOffset":646200,"byteStride":0,"componentType":5126,"count":12793,"min":[0.0066999997943639755,0.007799999788403511],"max":[0.9940000176429749,0.9883999824523926],"type":"VEC2"},"accessor_7":{"bufferView":"bufferView_1","byteOffset":125952,"byteStride":0,"componentType":5123,"count":73824,"min":[0],"max":[12792],"type":"SCALAR"}},"asset":{"generator":"obj2gltf","profile":{"api":"WebGL","version":"1.0"},"version":"1.0","premultipliedAlpha":true},"buffers":{"buffer":{"byteLength":1022144,"uri":"data:application/octet-stream;base64,","type":"arraybuffer"}},"bufferViews":{"bufferView_0":{"buffer":"buffer","byteLength":748544,"byteOffset":0,"target":34962},"bufferView_1":{"buffer":"buffer","byteLength":273600,"byteOffset":748544,"target":34963}},"extensionsUsed":[],"images":{"Snowman_diffuse":{"name":"Snowman_diffuse","uri":"data:image/jpeg;base64,"}},"materials":{"Snowman_metal":{"technique":"technique0","values":{"ambient":"texture_Snowman_diffuse","diffuse":"texture_Snowman_diffuse","emission":[0,0,0,1],"specular":[0.369,0.369,0.369,1],"shininess":51,"transparency":1}},"Snowman":{"technique":"technique0","values":{"ambient":"texture_Snowman_diffuse","diffuse":"texture_Snowman_diffuse","emission":[0,0,0,1],"specular":[0.135,0.135,0.135,1],"shininess":35,"transparency":1}}},"meshes":{"Snowmen_Metall_1":{"name":"Snowmen_Metall_1","primitives":[{"attributes":{"POSITION":"accessor_0","NORMAL":"accessor_1","TEXCOORD_0":"accessor_2"},"indices":"accessor_3","material":"Snowman_metal","mode":4}]},"Snowman_1":{"name":"Snowman_1","primitives":[{"attributes":{"POSITION":"accessor_4","NORMAL":"accessor_5","TEXCOORD_0":"accessor_6"},"indices":"accessor_7","material":"Snowman","mode":4}]}},"nodes":{"Snowmen_Metall":{"name":"Snowmen_Metall","meshes":["Snowmen_Metall_1"],"children":[],"matrix":[1,0,0,0,0,1,0,0,0,0,1,0,0,0,0,1]},"Snowman":{"name":"Snowman","meshes":["Snowman_1"],"children":[],"matrix":[1,0,0,0,0,1,0,0,0,0,1,0,0,0,0,1]}},"samplers":{"sampler":{"magFilter":9729,"minFilter":9986,"wrapS":10497,"wrapT":10497}},"scene":"scene","scenes":{"scene":{"nodes":["Snowmen_Metall","Snowman"]}},"textures":{"texture_Snowman_diffuse":{"format":6407,"internalFormat":6407,"sampler":"sampler","source":"Snowman_diffuse","target":3553,"type":5121}},"animations":{},"cameras":{},"programs":{"program0":{"attributes":["a_position","a_normal","a_texcoord_0"],"fragmentShader":"fragmentShader0","vertexShader":"vertexShader0"}},"shaders":{"vertexShader0":{"type":35633,"uri":"data:text/plain;base64,"},"fragmentShader0":{"type":35632,"uri":"data:text/plain;base64,"}},"skins":{},"techniques":{"technique0":{"attributes":{"a_position":"position","a_normal":"normal","a_texcoord_0":"texcoord_0"},"parameters":{"modelViewMatrix":{"semantic":"MODELVIEW","type":35676},"projectionMatrix":{"semantic":"PROJECTION","type":35676},"normalMatrix":{"semantic":"MODELVIEWINVERSETRANSPOSE","type":35675},"ambient":{"type":35678},"diffuse":{"type":35678},"emission":{"type":35666},"specular":{"type":35666},"shininess":{"type":5126},"transparency":{"type":5126},"position":{"semantic":"POSITION","type":35665},"normal":{"semantic":"NORMAL","type":35665},"texcoord_0":{"semantic":"TEXCOORD_0","type":35664}},"program":"program0","states":{"enable":[2884,2929]},"uniforms":{"u_modelViewMatrix":"modelViewMatrix","u_projectionMatrix":"projectionMatrix","u_normalMatrix":"normalMatrix","u_ambient":"ambient","u_diffuse":"diffuse","u_emission":"emission","u_specular":"specular","u_shininess":"shininess","u_transparency":"transparency"}}}}
