{"accessors":[{"bufferView":0,"byteOffset":0,"componentType":5123,"count":1323,"max":[299],"min":[0],"type":"SCALAR"},{"bufferView":1,"byteOffset":0,"componentType":5126,"count":300,"max":[0,0,1],"min":[0,0,0.9983069896697998],"type":"VEC3"},{"bufferView":1,"byteOffset":3600,"componentType":5126,"count":300,"max":[1.616360068321228,1.2660000324249268,0],"min":[0.20800301432609558,0.7401949763298035,0],"type":"VEC3"},{"bufferView":0,"byteOffset":2646,"componentType":5123,"count":3,"max":[0],"min":[0],"type":"SCALAR"},{"bufferView":1,"byteOffset":7200,"componentType":5126,"count":1,"max":[0,0,1],"min":[0,0,1],"type":"VEC3"},{"bufferView":1,"byteOffset":7212,"componentType":5126,"count":1,"max":[1.406059980392456,0.8004531264305115,0],"min":[1.406059980392456,0.8004531264305115,0],"type":"VEC3"},{"bufferView":0,"byteOffset":2652,"componentType":5123,"count":918,"max":[345],"min":[0],"type":"SCALAR"},{"bufferView":1,"byteOffset":7224,"componentType":5126,"count":346,"max":[1,1,0],"min":[-1,-1,0],"type":"VEC3"},{"bufferView":1,"byteOffset":11376,"componentType":5126,"count":346,"max":[1.616360068321228,1.2660000324249268,0],"min":[0.20800301432609558,0.7401949763298035,-0.20190002024173737],"type":"VEC3"},{"bufferView":0,"byteOffset":4488,"componentType":5123,"count":3,"max":[0],"min":[0],"type":"SCALAR"},{"bufferView":1,"byteOffset":15528,"componentType":5126,"count":1,"max":[0,0,1],"min":[0,0,1],"type":"VEC3"},{"bufferView":1,"byteOffset":15540,"componentType":5126,"count":1,"max":[1.406059980392456,0.8004531264305115,0],"min":[1.406059980392456,0.8004531264305115,0],"type":"VEC3"},{"bufferView":0,"byteOffset":4494,"componentType":5123,"count":1323,"max":[299],"min":[0],"type":"SCALAR"},{"bufferView":1,"byteOffset":15552,"componentType":5126,"count":300,"max":[0,0,-0.9983069896697998],"min":[0,0,-1],"type":"VEC3"},{"bufferView":1,"byteOffset":19152,"componentType":5126,"count":300,"max":[1.616360068321228,1.2660000324249268,-0.20190002024173737],"min":[0.20800301432609558,0.7401949763298035,-0.20190002024173737],"type":"VEC3"}],"asset":{"generator":"COLLADA2GLTF","version":"2.0"},"bufferViews":[{"buffer":0,"byteLength":7140,"byteOffset":0,"target":34963},{"buffer":0,"byteLength":22752,"byteOffset":7140,"byteStride":12,"target":34962}],"buffers":[{"name":"output","byteLength":29892,"uri":"data:application/octet-stream;base64,"}],"cameras":[{"name":"Default_Camera","perspective":{"aspectRatio":1,"yfov":0.523598313331604,"zfar":1,"znear":0.0010000000474974513},"type":"perspective"}],"materials":[{"name":"effect-ID1","pbrMetallicRoughness":{"baseColorFactor":[1,1,1,1],"metallicFactor":0,"roughnessFactor":1},"emissiveFactor":[0,0,0],"alphaMode":"OPAQUE","doubleSided":false},{"name":"effect-ID1","pbrMetallicRoughness":{"baseColorFactor":[1,1,1,1],"metallicFactor":0,"roughnessFactor":1},"emissiveFactor":[0,0,0],"alphaMode":"OPAQUE","doubleSided":false},{"name":"effect-ID1","pbrMetallicRoughness":{"baseColorFactor":[1,1,1,1],"metallicFactor":0,"roughnessFactor":1},"emissiveFactor":[0,0,0],"alphaMode":"OPAQUE","doubleSided":false},{"name":"effect-ID1","pbrMetallicRoughness":{"baseColorFactor":[1,1,1,1],"metallicFactor":0,"roughnessFactor":1},"emissiveFactor":[0,0,0],"alphaMode":"OPAQUE","doubleSided":false},{"name":"effect-ID1","pbrMetallicRoughness":{"baseColorFactor":[1,1,1,1],"metallicFactor":0,"roughnessFactor":1},"emissiveFactor":[0,0,0],"alphaMode":"OPAQUE","doubleSided":false}],"meshes":[{"name":"TTS","primitives":[{"attributes":{"NORMAL":1,"POSITION":2},"indices":0,"material":0,"mode":4},{"attributes":{"NORMAL":4,"POSITION":5},"indices":3,"material":1,"mode":4},{"attributes":{"NORMAL":7,"POSITION":8},"indices":6,"material":2,"mode":4},{"attributes":{"NORMAL":10,"POSITION":11},"indices":9,"material":3,"mode":4},{"attributes":{"NORMAL":13,"POSITION":14},"indices":12,"material":4,"mode":4}]}],"nodes":[{"children":[2,1],"name":"Y_UP"},{"camera":0,"matrix":[1,0,0,0,0,1,0,0,0,0,1,0,0.002123430138453841,-0.029142100363969803,0.005258259829133749,1],"name":"Default_Camera"},{"matrix":[0.002980999881401658,-0.0006970000104047358,-0.0013160000089555979,0,0.0009549999958835542,0.003155000042170286,0.0004920000210404396,0,0.0011419999646022916,-0.0008169999928213656,0.0030219999607652426,0,-0.0014601501170545816,-0.031303100287914276,-0.006112969946116209,1],"mesh":0,"name":"TTS"}],"scene":0,"scenes":[{"nodes":[0]}]}
